<?xml version="1.0" encoding="UTF-8" standalone="no"?>
<svg
   xmlns:dc="http://purl.org/dc/elements/1.1/"
   xmlns:cc="http://creativecommons.org/ns#"
   xmlns:rdf="http://www.w3.org/1999/02/22-rdf-syntax-ns#"
   xmlns:svg="http://www.w3.org/2000/svg"
   xmlns="http://www.w3.org/2000/svg"
   xmlns:sodipodi="http://sodipodi.sourceforge.net/DTD/sodipodi-0.dtd"
   xmlns:inkscape="http://www.inkscape.org/namespaces/inkscape"
   sodipodi:docname="coupler.svg"
   inkscape:version="1.0 (4035a4f, 2020-05-01)"
   id="svg8"
   version="1.1"
   viewBox="0 0 210 297"
   height="297mm"
   width="210mm">
  <defs
     id="defs2">
    <inkscape:path-effect
       end_linecap_type="zerowidth"
       scale_width="1"
       miter_limit="4"
       linejoin_type="extrp_arc"
       start_linecap_type="zerowidth"
       interpolator_beta="0.2"
       interpolator_type="CubicBezierJohan"
       sort_points="true"
       offset_points="21.723077,-0.32817515"
       lpeversion="1"
       is_visible="true"
       id="path-effect12"
       effect="powerstroke" />
  </defs>
  <sodipodi:namedview
     inkscape:window-maximized="0"
     inkscape:window-y="0"
     inkscape:window-x="0"
     inkscape:window-height="800"
     inkscape:window-width="1280"
     showguides="false"
     showgrid="true"
     inkscape:document-rotation="0"
     inkscape:current-layer="layer1"
     inkscape:document-units="mm"
     inkscape:cy="276.5953"
     inkscape:cx="275.81605"
     inkscape:zoom="2"
     inkscape:pageshadow="2"
     inkscape:pageopacity="0.0"
     borderopacity="1.0"
     bordercolor="#666666"
     pagecolor="#ffffff"
     id="base">
    <inkscape:grid
       id="grid14"
       type="xygrid" />
  </sodipodi:namedview>
  <metadata
     id="metadata5">
    <rdf:RDF>
      <cc:Work
         rdf:about="">
        <dc:format>image/svg+xml</dc:format>
        <dc:type
           rdf:resource="http://purl.org/dc/dcmitype/StillImage" />
        <dc:title></dc:title>
      </cc:Work>
    </rdf:RDF>
  </metadata>
  <g
     id="layer1"
     inkscape:groupmode="layer"
     inkscape:label="Layer 1">
    <path
       inkscape:path-effect="#path-effect12"
       inkscape:original-d="M 15.875,82.020833 C 24.913234,95.578185 5.8047651,104.06368 -1.250169,93.244597 -6.4109064,85.330356 -11.571646,77.416117 -16.732384,69.501877 -20.195291,64.191343 -19.35692,51.414378 -14.453875,47.457979 -1.5465739,37.04273 11.360728,26.627483 24.26803,16.212235 33.560749,8.7136908 41.941781,11.462738 52.596629,15.248605 l 67.330551,23.923807 c 17.51378,6.222975 17.65615,5.806755 17.65615,19.035921 V 63.5 l 73.85693,-0.06402 0.22641,52.98069 h -74.08334 v 5.29166 c 0,7.9375 -0.0523,7.61225 -9.26041,9.26042 0,0 -72.300036,12.94117 -108.450065,19.41169 -4.288879,0.76767 -3.386281,-6.47545 0,-8.08785 15.336128,-7.3024 30.672263,-14.60478 46.008395,-21.90717 C 73.810838,116.6097 82.748811,98.902159 76.729166,87.3125 69.10626,72.636073 53.860447,43.283219 53.860447,43.283219 50.676782,37.153689 36.043373,35.238667 30.266159,38.880003 L 8.9503833,52.315182 c -5.6933223,3.58846 -7.1334895,8.618492 -3.6587166,13.830651 0,0 7.0555553,10.583333 10.5833333,15.875 z"
       sodipodi:nodetypes="ssssssssccccsssssssssss"
       id="path10"
       d="m 16.148058,81.838794 c 1.12878,1.69317 1.850767,3.346119 2.196069,4.930627 v 0 c 0.33347,1.530215 0.312549,2.984148 -0.02137,4.325332 l -6e-6,2.3e-5 c -0.323097,1.297699 -0.936217,2.476354 -1.78142,3.497131 v 0 c -0.819495,0.98973 -1.853927,1.826637 -3.037164,2.470257 v 0 c -1.150105,0.625599 -2.441625,1.068635 -3.8009235,1.284452 v 0 c -1.3239419,0.210203 -2.716015,0.205104 -4.0929509,-0.06279 l -2.57e-5,-5e-6 C 4.266337,98.022347 2.9327169,97.509398 1.7014594,96.69875 v 0 C 0.49732842,95.905962 -0.60949879,94.827914 -1.5250635,93.423851 h -1e-7 C -6.3253664,86.062354 -11.502663,78.122724 -17.007264,69.681153 l -2.5e-5,-3.8e-5 c -0.447539,-0.686325 -0.82483,-1.490403 -1.132715,-2.381718 v 0 c -0.30389,-0.879745 -0.541003,-1.846985 -0.710546,-2.872356 v 0 c -0.332821,-2.012843 -0.406237,-4.254775 -0.20668,-6.484173 v 0 c 0.194608,-2.174098 0.650826,-4.345355 1.386007,-6.237094 v 0 c 0.361753,-0.93085 0.792648,-1.797873 1.295472,-2.562764 v 0 c 0.4975,-0.756792 1.068313,-1.41796 1.715787,-1.940425 l 3e-6,-3e-6 C -2.2089085,37.155493 10.721481,26.721615 24.061944,15.956839 v 0 c 2.33419,-1.883521 4.633879,-3.145867 6.952594,-3.902973 v 0 c 2.287692,-0.746976 4.577301,-0.996971 6.922935,-0.882888 l 3.2e-5,2e-6 c 2.31457,0.112575 4.671866,0.578739 7.132132,1.260273 l 3.4e-5,9e-6 c 2.433864,0.674222 4.95259,1.554346 7.636835,2.508108 l 5.9e-5,2.1e-5 c 21.987164,7.812452 44.459918,15.797443 67.330495,23.923786 v 10e-7 c 4.34755,1.544766 7.6742,2.697228 10.16489,3.746112 v 0 c 1.24292,0.52342 2.29283,1.027033 3.17561,1.550471 v 0 c 0.88017,0.521891 1.59952,1.066557 2.18259,1.676525 l 2e-5,1.8e-5 c 0.58233,0.609209 1.02367,1.278256 1.35573,2.045852 l 1e-5,2.2e-5 c 0.33009,0.763061 0.54946,1.617086 0.69609,2.597292 v 2.9e-5 c 0.14604,0.976275 0.22069,2.083145 0.25903,3.358003 v 3.8e-5 c 0.0382,1.271493 0.0405,2.714544 0.0405,4.370793 v 0 c 0,1.636765 0,3.292756 0,4.963207 24.32055,-0.02108 48.85511,-0.04235 73.52847,-0.06374 l 0.32705,-2.84e-4 10e-4,0.327057 c 0.0751,17.579643 0.15067,35.2575 0.22641,52.980697 l 0.001,0.32957 h -0.32958 c -24.54682,0 -49.15583,0 -73.75516,0 0,1.65685 0,3.31278 0,4.96349 v 2e-5 c 0,0.99183 -8.1e-4,1.85887 -0.0203,2.61766 v 0 c -0.0195,0.7591 -0.058,1.41716 -0.1346,1.98964 v 2e-5 c -0.0767,0.57308 -0.19285,1.06972 -0.37224,1.50207 l -1e-5,1e-5 c -0.18082,0.43579 -0.42456,0.80294 -0.75093,1.11608 l -1e-5,1e-5 c -0.32529,0.3121 -0.72308,0.56138 -1.20072,0.77341 v 0 c -0.47695,0.21172 -1.03958,0.38891 -1.69842,0.5538 h -2e-5 c -1.31451,0.32899 -3.06524,0.62117 -5.35343,1.03073 l -4e-5,1e-5 c 0,0 -73.038663,13.07338 -108.450061,19.41169 h -3e-6 c -0.289671,0.0518 -0.562389,0.0708 -0.818006,0.0581 v 0 c -0.25614,-0.0127 -0.494662,-0.057 -0.714841,-0.13115 h -1.4e-5 c -0.220623,-0.0743 -0.420627,-0.1779 -0.59966,-0.30695 l -1.1e-5,-1e-5 c -0.179153,-0.12913 -0.335307,-0.28233 -0.469519,-0.45421 v 0 c -0.268504,-0.34387 -0.447782,-0.76047 -0.55297,-1.21074 l -3e-6,-2e-5 c -0.105547,-0.45183 -0.138265,-0.94471 -0.108591,-1.44876 l 1e-6,-2e-5 c 0.05954,-1.01132 0.371434,-2.09107 0.886831,-3.02395 l 8e-6,-1e-5 c 0.259504,-0.46971 0.572626,-0.90596 0.935262,-1.27976 v 0 c 0.364163,-0.37539 0.779604,-0.68928 1.242593,-0.90973 l 1.4e-5,-1e-5 c 9.21973,-4.39004 36.788643,-17.51712 46.008374,-21.90716 l 4.8e-5,-2e-5 c 0.960341,-0.45728 1.942512,-1.12927 2.91455,-1.98038 v 0 c 0.976289,-0.85484 1.938435,-1.8869 2.854996,-3.05647 l 2.6e-5,-3e-5 c 1.848111,-2.35827 3.501271,-5.26274 4.720606,-8.39214 l 1.7e-5,-5e-5 c 1.233067,-3.16466 2.017204,-6.54426 2.130447,-9.832769 v 0 c 0.05707,-1.657355 -0.05628,-3.288541 -0.366209,-4.857438 v 0 c -0.311724,-1.578005 -0.821991,-3.091545 -1.556693,-4.506072 v 0 C 68.607447,72.387687 60.972631,57.688331 53.569217,43.434493 l -4e-6,-8e-6 c -0.377374,-0.726559 -0.927858,-1.395671 -1.616817,-2.003588 v 0 C 51.257559,40.817795 50.42454,40.269313 49.492772,39.788952 v 0 c -1.889353,-0.974034 -4.169795,-1.66078 -6.510402,-2.047633 v 0 c -2.386612,-0.394457 -4.825376,-0.476156 -7.005459,-0.24512 v 0 c -1.106462,0.117259 -2.143348,0.314638 -3.075613,0.590796 v 0 c -0.94269,0.279247 -1.772638,0.637306 -2.460134,1.070627 l -1.7e-5,1.1e-5 C 22.97681,43.86235 15.853959,48.351831 9.1253712,52.592812 l -1.52e-5,9e-6 c -1.421965,0.896256 -2.5438584,1.864972 -3.3850445,2.874412 v 0 C 4.8700877,56.511519 4.299063,57.600268 3.9997922,58.707264 v 0 c -0.3108639,1.149879 -0.3311468,2.328319 -0.081821,3.515846 v 0 c 0.2606302,1.241372 0.816287,2.494983 1.646754,3.740684 h 2e-7 c 2.7699244,4.154887 5.3286946,7.993041 7.6525656,11.478848 v 0 c 0.586154,0.87923 2.344615,3.516922 2.930767,4.396152 z m -0.546116,0.364078 C 15.015788,81.323641 13.257327,78.68595 12.671173,77.806719 v 0 C 10.347302,74.320913 7.7885328,70.482758 5.0186085,66.327872 l -3e-7,-10e-7 C 4.1509896,65.026444 3.5565559,63.696035 3.2756252,62.357973 v 0 C 3.0063031,61.075202 3.0267359,59.791597 3.3661876,58.535972 v 0 c 0.3264889,-1.207675 0.9456451,-2.379798 1.8698982,-3.48892 v 0 c 0.8923546,-1.070843 2.0690754,-2.08282 3.5392939,-3.00949 l 1.57e-5,-1e-5 C 15.503983,47.796572 22.626835,43.307091 30.091171,38.602373 l 1.8e-5,-1.1e-5 c 0.749312,-0.472283 1.637235,-0.852476 2.62369,-1.144687 v 0 c 0.976561,-0.28928 2.053443,-0.49342 3.192862,-0.614171 v 0 c 2.243519,-0.237759 4.741701,-0.153024 7.181658,0.25025 v 0 c 2.391192,0.395214 4.740361,1.099412 6.704132,2.111811 v 0 c 0.96959,0.49986 1.849886,1.077368 2.593125,1.73318 v 0 c 0.737083,0.65038 1.343353,1.381359 1.765025,2.193208 l 4e-6,7e-6 C 61.5551,57.385798 69.189915,72.085154 77.0204,87.161233 v 10e-7 c 0.765896,1.474583 1.295445,3.047906 1.618132,4.681405 v 0 c 0.320747,1.623684 0.436863,3.305558 0.378264,5.007226 v 0 c -0.116202,3.374415 -0.919685,6.827105 -2.174842,10.048465 l -1.8e-5,5e-5 c -1.241223,3.18558 -2.92544,6.14683 -4.815559,8.5587 l -2.7e-5,4e-5 c -0.93782,1.1967 -1.927645,2.25968 -2.939232,3.14541 v 0 c -1.006196,0.88102 -2.038133,1.59034 -3.064753,2.07918 l -5.1e-5,2e-5 c -48.630634,23.15576 2.622261,-1.2486 -46.008374,21.90716 l -1.1e-5,1e-5 c -0.382177,0.18197 -0.735606,0.44628 -1.05367,0.77415 v 0 c -0.317048,0.32681 -0.596716,0.71453 -0.831857,1.14014 l -7e-6,1e-5 c -0.46907,0.84903 -0.75246,1.83374 -0.806117,2.74513 l -1e-6,1e-5 c -0.02665,0.45267 0.0038,0.88103 0.09252,1.26089 l 3e-6,1e-5 c 0.08854,0.37903 0.233442,0.7029 0.431153,0.95611 v 0 c 0.09842,0.12604 0.21029,0.23511 0.335986,0.32571 h 8e-6 c 0.12542,0.0904 0.26663,0.1639 0.425414,0.21739 l 9e-6,1e-5 c 0.15873,0.0535 0.337245,0.0877 0.537696,0.0976 v 0 c 0.200403,0.01 0.423204,-0.004 0.66997,-0.0487 h 2e-6 C 55.226433,143.71909 128.2651,130.64571 128.2651,130.64571 l 3e-5,-1e-5 c 2.30616,-0.41278 4.02357,-0.69947 5.30972,-1.02136 h 2e-5 c 0.64,-0.16018 1.16252,-0.32657 1.59149,-0.51699 v 0 c 0.42713,-0.18961 0.75549,-0.40043 1.0126,-0.64712 h 1e-5 c 0.25533,-0.24498 0.44988,-0.53439 0.5991,-0.89402 l 10e-6,-1e-5 c 0.15029,-0.36222 0.25578,-0.7986 0.32793,-1.33761 v -2e-5 c 0.0721,-0.53852 0.10972,-1.1698 0.12902,-1.91945 v 0 c 0.0193,-0.74877 0.0201,-1.60704 0.0201,-2.60076 v -3e-5 c 0,-1.75969 0,-3.52531 0,-5.29166 v -0.32818 h 0.32818 c 24.59855,0 49.20709,0 73.75376,0 -0.0739,-17.283702 -0.14894,-34.852215 -0.2236,-52.324051 -24.67418,0.02139 -49.20923,0.04265 -73.52987,0.06374 l -0.32847,2.85e-4 V 63.5 c 0,-1.781873 0,-3.547684 0,-5.291667 v 0 c 0,-1.65812 -0.002,-3.09115 -0.0402,-4.351063 v -3.7e-5 c -0.038,-1.263416 -0.11157,-2.34114 -0.25211,-3.280632 v -2.8e-5 c -0.14089,-0.941804 -0.34808,-1.737332 -0.64937,-2.433804 v -2e-5 c -0.30148,-0.696916 -0.69971,-1.300466 -1.22779,-1.852917 l -1e-5,-1.6e-5 c -0.53135,-0.555865 -1.19932,-1.065293 -2.0429,-1.56549 v 0 c -0.84731,-0.502412 -1.86734,-0.992892 -3.09559,-1.510135 v 0 c -2.46828,-1.039445 -5.7694,-2.183176 -10.12991,-3.732544 v 0 C 96.946729,31.355303 74.473975,23.370312 52.486811,15.55786 l -5.9e-5,-2.1e-5 C 49.80079,14.603467 47.302757,13.730934 44.894449,13.063791 l -3.3e-5,-9e-6 c -2.432521,-0.673848 -4.739107,-1.127808 -6.988797,-1.237227 l -3e-5,-2e-6 c -2.276023,-0.110697 -4.484722,0.132052 -6.687324,0.851245 v 0 c -2.2332,0.729183 -4.46349,1.949509 -6.744149,3.789833 v 10e-7 C 11.133654,27.232408 -1.7967359,37.666286 -14.247789,47.713375 l -2e-6,3e-6 c -0.584291,0.47148 -1.111379,1.078068 -1.579504,1.790176 v 0 c -0.472946,0.719441 -0.883865,1.543771 -1.232153,2.439972 v 0 c -0.708507,1.823105 -1.153755,3.931994 -1.344045,6.057859 v 0 c -0.195013,2.178623 -0.122232,4.366752 0.2005,6.318584 v 0 c 0.164448,0.994549 0.393268,1.9253 0.683369,2.76513 v 0 c 0.29416,0.851578 0.649688,1.605014 1.062125,2.23751 l 2.4e-5,3.6e-5 c 5.504601,8.441571 10.6818976,16.381201 15.48220043,23.742698 h 6e-8 c 0.86632694,1.328554 1.90911144,2.342178 3.03766431,3.085206 v 0 c 1.1549754,0.760424 2.407542,1.242752 3.6732251,1.489003 l 2.42e-5,5e-6 c 1.2973983,0.252418 2.6120654,0.257707 3.8646832,0.05883 v 0 C 10.885885,97.494275 12.106749,97.07512 13.19054,96.485593 v 0 c 1.114999,-0.606503 2.082735,-1.391372 2.845244,-2.312278 v 0 c 0.785681,-0.948891 1.3519,-2.039572 1.65006,-3.237114 l 5e-6,-2.1e-5 c 0.307996,-1.237061 0.330428,-2.588661 0.01698,-4.027004 v 0 c -0.324964,-1.491182 -1.009366,-3.069023 -2.100886,-4.706304 z"
       style="fill:#000000;fill-rule:nonzero;stroke:none;stroke-width:0.388732px;stroke-linecap:butt;stroke-linejoin:miter;stroke-opacity:1" />
  </g>
</svg>
